<?xml version="1.0" encoding="UTF-8" standalone="no" ?>
<!DOCTYPE svg PUBLIC "-//W3C//DTD SVG 1.1//EN" "http://www.w3.org/Graphics/SVG/1.1/DTD/svg11.dtd">
<svg xmlns="http://www.w3.org/2000/svg" xmlns:xlink="http://www.w3.org/1999/xlink" version="1.1" width="1080" height="1080" viewBox="0 0 1080 1080" xml:space="preserve">
<desc>Created with Fabric.js 5.2.4</desc>
<defs>
</defs>
<g transform="matrix(1 0 0 1 540 540)" id="5f0fb83b-4914-443f-95db-1c6af6455f04"  >
<rect style="stroke: none; stroke-width: 1; stroke-dasharray: none; stroke-linecap: butt; stroke-dashoffset: 0; stroke-linejoin: miter; stroke-miterlimit: 4; fill: rgb(255,255,255); fill-rule: nonzero; opacity: 1; visibility: hidden;" vector-effect="non-scaling-stroke"  x="-540" y="-540" rx="0" ry="0" width="1080" height="1080" />
</g>
<g transform="matrix(1 0 0 1 540 540)" id="28fdcec7-b877-4856-a507-1317517b1e81"  >
</g>
<g transform="matrix(1 0 0 1 383.32 300.91)"  >
<path style="stroke: none; stroke-width: 1; stroke-dasharray: none; stroke-linecap: butt; stroke-dashoffset: 0; stroke-linejoin: miter; stroke-miterlimit: 4; fill: rgb(112,190,234); fill-rule: evenodd; opacity: 1;" vector-effect="non-scaling-stroke"  transform=" translate(-354.82, -272.41)" d="M 348.5 220.5 C 374.164 219.404 392.331 230.404 403 253.5 C 410.943 278.905 404.443 299.739 383.5 316 C 357.281 330.221 334.115 326.388 314 304.5 C 296.456 275.705 300.623 250.539 326.5 229 C 333.469 224.85 340.802 222.017 348.5 220.5 Z" stroke-linecap="round" />
</g>
<g transform="matrix(1 0 0 1 671.69 300.87)"  >
<path style="stroke: none; stroke-width: 1; stroke-dasharray: none; stroke-linecap: butt; stroke-dashoffset: 0; stroke-linejoin: miter; stroke-miterlimit: 4; fill: rgb(143,204,149); fill-rule: evenodd; opacity: 1;" vector-effect="non-scaling-stroke"  transform=" translate(-643.19, -272.37)" d="M 636.5 220.5 C 665.985 219.816 685.152 233.483 694 261.5 C 697.809 294.751 683.642 315.584 651.5 324 C 619.727 326.376 599.894 312.21 592 281.5 C 589.784 248.562 604.617 228.229 636.5 220.5 Z" stroke-linecap="round" />
</g>
<g transform="matrix(1 0 0 1 648.5 599.54)"  >
<path style="stroke: none; stroke-width: 1; stroke-dasharray: none; stroke-linecap: butt; stroke-dashoffset: 0; stroke-linejoin: miter; stroke-miterlimit: 4; fill: rgb(143,204,149); fill-rule: evenodd; opacity: 1;" vector-effect="non-scaling-stroke"  transform=" translate(-620, -571.04)" d="M 746.5 426.5 C 745.839 428.134 745.506 429.967 745.5 432 C 746.078 447.662 746.745 463.162 747.5 478.5 C 742.295 532.989 728.795 585.322 707 635.5 C 681.7 695.135 650.034 750.802 612 802.5 C 642.499 733.667 665.832 662.334 682 588.5 C 690.747 548.278 694.081 507.611 692 466.5 C 690.781 443.835 683.448 423.502 670 405.5 C 660.82 396.995 649.987 391.828 637.5 390 C 627.5 389.333 617.5 389.333 607.5 390 C 591.882 392.659 576.215 394.992 560.5 397 C 535.98 400.763 513.313 396.097 492.5 383 C 509.663 387.222 526.996 387.556 544.5 384 C 572.502 375.5 599.502 364.5 625.5 351 C 636.783 346.128 648.45 342.461 660.5 340 C 701.372 336.517 727.872 354.35 740 393.5 C 743.259 404.293 745.425 415.293 746.5 426.5 Z" stroke-linecap="round" />
</g>
<g transform="matrix(1 0 0 1 456.04 573.92)"  >
<path style="stroke: none; stroke-width: 1; stroke-dasharray: none; stroke-linecap: butt; stroke-dashoffset: 0; stroke-linejoin: miter; stroke-miterlimit: 4; fill: rgb(112,190,234); fill-rule: evenodd; opacity: 1;" vector-effect="non-scaling-stroke"  transform=" translate(-427.54, -545.42)" d="M 334.5 357.5 C 359.897 356.266 383.564 362.099 405.5 375 C 422.668 386.421 440.335 397.087 458.5 407 C 481.216 418.341 505.216 423.008 530.5 421 C 543.62 419.373 556.62 417.373 569.5 415 C 540.503 436.753 507.836 446.086 471.5 443 C 453.246 439.52 434.913 436.52 416.5 434 C 393.217 431.553 377.051 441.053 368 462.5 C 364.414 471.509 362.081 480.842 361 490.5 C 358.706 552.696 371.373 611.696 399 667.5 C 410.41 691.22 424.577 713.053 441.5 733 C 441.167 733.167 440.833 733.333 440.5 733.5 C 378.119 690.8 333.953 633.8 308 562.5 C 291.025 516.983 283.691 469.983 286 421.5 C 286.864 407.377 290.53 394.043 297 381.5 C 306.178 368.326 318.678 360.326 334.5 357.5 Z" stroke-linecap="round" />
</g>
<g transform="matrix(1 0 0 1 775.46 481)"  >
<path style="stroke: none; stroke-width: 1; stroke-dasharray: none; stroke-linecap: butt; stroke-dashoffset: 0; stroke-linejoin: miter; stroke-miterlimit: 4; fill: rgb(132,199,138); fill-rule: evenodd; opacity: 1;" vector-effect="non-scaling-stroke"  transform=" translate(-746.96, -452.5)" d="M 746.5 426.5 C 748.678 443.794 749.011 461.127 747.5 478.5 C 746.745 463.162 746.078 447.662 745.5 432 C 745.506 429.967 745.839 428.134 746.5 426.5 Z" stroke-linecap="round" />
</g>
</svg>